<svg width="32" height="32" viewBox="0 0 32 32" fill="none" xmlns="http://www.w3.org/2000/svg">
<g clip-path="url(#clip0_4004_20)">
<path fill-rule="evenodd" clip-rule="evenodd" d="M32 16C32 20.29 30.3115 24.1856 27.5632 27.0587C24.6603 30.093 20.5753 31.9867 16.0478 32C16.0318 32 16.0159 32 16 32C15.9841 32 15.9682 32 15.9523 32C11.4247 31.9867 7.33957 30.093 4.43687 27.0587C1.68836 24.1856 0 20.29 0 16C0 7.16345 7.16345 0 16 0C24.8366 0 32 7.16345 32 16ZM25.6978 24C23.3922 21.2079 19.9039 19.4285 16 19.4285C12.0961 19.4285 8.60786 21.2079 6.30206 24C8.60786 26.792 12.0961 28.5714 16 28.5714C19.9039 28.5714 23.3922 26.792 25.6978 24ZM16.0003 17.1428C19.1562 17.1428 21.7146 14.5844 21.7146 11.4285C21.7146 8.27259 19.1562 5.71422 16.0003 5.71422C12.8444 5.71422 10.286 8.27259 10.286 11.4285C10.286 14.5844 12.8444 17.1428 16.0003 17.1428Z" fill="#F0F0F0"/>
</g>
<defs>
<clipPath id="clip0_4004_20">
<rect width="32" height="32" fill="white"/>
</clipPath>
</defs>
</svg>
