<svg width="140" height="18" viewBox="0 0 140 18" fill="none" xmlns="http://www.w3.org/2000/svg">
<path d="M6.40197 17L3.83397 10.304L3.01797 11.84V17H0.377969V0.199999H3.01797V7.52L6.47397 0.199999H9.11397L5.44197 7.688L9.11397 17H6.40197ZM15.2355 9.296L13.0275 17H10.3155V0.199999H12.6675V10.832L13.6275 7.136L15.7875 0.199999H18.6915V17H16.3155V5.168L15.2355 9.296ZM24.4457 0.199999C27.0697 0.199999 28.3817 1.584 28.3817 4.352V6.536C28.3817 9.304 27.0697 10.688 24.4457 10.688H23.1977V17H20.5577V0.199999H24.4457ZM24.4457 2.6H23.1977V8.288H24.4457C24.8777 8.288 25.1977 8.168 25.4057 7.928C25.6297 7.688 25.7417 7.28 25.7417 6.704V4.184C25.7417 3.608 25.6297 3.2 25.4057 2.96C25.1977 2.72 24.8777 2.6 24.4457 2.6ZM34.5245 9.296L32.3165 17H29.6045V0.199999H31.9565V10.832L32.9165 7.136L35.0765 0.199999H37.9805V17H35.6045V5.168L34.5245 9.296ZM39.1027 17.024V14.624C39.7427 14.624 40.1667 14.528 40.3747 14.336C40.5987 14.128 40.7187 13.648 40.7347 12.896L41.1667 0.199999H48.6307V17H45.9427V2.6H43.6387L43.3507 12.752C43.3027 14.288 42.9827 15.384 42.3907 16.04C41.7987 16.696 40.8387 17.024 39.5107 17.024H39.1027ZM53.0754 4.064V13.136C53.0754 14.24 53.5314 14.792 54.4434 14.792C55.3554 14.792 55.8114 14.24 55.8114 13.136V4.064C55.8114 2.96 55.3554 2.408 54.4434 2.408C53.5314 2.408 53.0754 2.96 53.0754 4.064ZM50.4354 12.968V4.232C50.4354 2.888 50.7794 1.848 51.4674 1.112C52.1554 0.375999 53.1474 0.0079999 54.4434 0.0079999C55.7394 0.0079999 56.7314 0.375999 57.4194 1.112C58.1074 1.848 58.4514 2.888 58.4514 4.232V12.968C58.4514 14.312 58.1074 15.352 57.4194 16.088C56.7314 16.824 55.7394 17.192 54.4434 17.192C53.1474 17.192 52.1554 16.824 51.4674 16.088C50.7794 15.352 50.4354 14.312 50.4354 12.968ZM69.0536 10.736H71.5496V12.968C71.5496 14.328 71.2136 15.376 70.5416 16.112C69.8696 16.832 68.8936 17.192 67.6136 17.192C66.3336 17.192 65.3576 16.832 64.6856 16.112C64.0136 15.376 63.6776 14.328 63.6776 12.968V4.232C63.6776 2.872 64.0136 1.832 64.6856 1.112C65.3576 0.375999 66.3336 0.0079999 67.6136 0.0079999C68.8936 0.0079999 69.8696 0.375999 70.5416 1.112C71.2136 1.832 71.5496 2.872 71.5496 4.232V5.864H69.0536V4.064C69.0536 2.96 68.5976 2.408 67.6856 2.408C66.7736 2.408 66.3176 2.96 66.3176 4.064V13.136C66.3176 14.224 66.7736 14.768 67.6856 14.768C68.5976 14.768 69.0536 14.224 69.0536 13.136V10.736ZM81.8394 0.199999L79.0074 12.728C78.6714 14.36 78.1354 15.512 77.3994 16.184C76.6634 16.856 75.4234 17.136 73.6794 17.024V14.672C74.3994 14.72 74.9434 14.648 75.3114 14.456C75.6794 14.264 75.9114 13.88 76.0074 13.304L76.0314 13.16L72.3834 0.199999H74.9994L76.4394 5.936L77.2554 9.872L77.8794 5.96L79.0794 0.199999H81.8394ZM85.5883 2.6V17H82.9483V0.199999H91.2763V17H88.5883V2.6H85.5883ZM97.0785 0.199999C99.7025 0.199999 101.014 1.584 101.014 4.352V6.536C101.014 9.304 99.7025 10.688 97.0785 10.688H95.8305V17H93.1905V0.199999H97.0785ZM97.0785 2.6H95.8305V8.288H97.0785C97.5105 8.288 97.8305 8.168 98.0385 7.928C98.2625 7.688 98.3745 7.28 98.3745 6.704V4.184C98.3745 3.608 98.2625 3.2 98.0385 2.96C97.8305 2.72 97.5105 2.6 97.0785 2.6ZM110.925 0.199999L108.093 12.728C107.757 14.36 107.221 15.512 106.485 16.184C105.749 16.856 104.509 17.136 102.765 17.024V14.672C103.485 14.72 104.029 14.648 104.397 14.456C104.765 14.264 104.997 13.88 105.093 13.304L105.117 13.16L101.469 0.199999H104.085L105.525 5.936L106.341 9.872L106.965 5.96L108.165 0.199999H110.925ZM114.674 9.8V17H112.034V0.199999H114.674V7.4H117.674V0.199999H120.362V17H117.674V9.8H114.674ZM124.7 4.064V13.136C124.7 14.24 125.156 14.792 126.068 14.792C126.98 14.792 127.436 14.24 127.436 13.136V4.064C127.436 2.96 126.98 2.408 126.068 2.408C125.156 2.408 124.7 2.96 124.7 4.064ZM122.06 12.968V4.232C122.06 2.888 122.404 1.848 123.092 1.112C123.78 0.375999 124.772 0.0079999 126.068 0.0079999C127.364 0.0079999 128.356 0.375999 129.044 1.112C129.732 1.848 130.076 2.888 130.076 4.232V12.968C130.076 14.312 129.732 15.352 129.044 16.088C128.356 16.824 127.364 17.192 126.068 17.192C124.772 17.192 123.78 16.824 123.092 16.088C122.404 15.352 122.06 14.312 122.06 12.968ZM135.776 0.199999C137.136 0.199999 138.128 0.519999 138.752 1.16C139.376 1.784 139.688 2.752 139.688 4.064V4.664C139.688 6.392 139.12 7.52 137.984 8.048C139.296 8.56 139.952 9.76 139.952 11.648V13.016C139.952 14.312 139.608 15.304 138.92 15.992C138.248 16.664 137.256 17 135.944 17H131.792V0.199999H135.776ZM135.608 9.44H134.432V14.6H135.944C136.408 14.6 136.752 14.48 136.976 14.24C137.2 13.984 137.312 13.552 137.312 12.944V11.48C137.312 10.712 137.176 10.184 136.904 9.896C136.648 9.592 136.216 9.44 135.608 9.44ZM135.704 2.6H134.432V7.04H135.464C135.992 7.04 136.384 6.904 136.64 6.632C136.912 6.36 137.048 5.904 137.048 5.264V4.328C137.048 3.176 136.6 2.6 135.704 2.6Z" fill="#F2DFB0"/>
<path d="M6.40197 17L3.83397 10.304L3.01797 11.84V17H0.377969V0.199999H3.01797V7.52L6.47397 0.199999H9.11397L5.44197 7.688L9.11397 17H6.40197ZM15.2355 9.296L13.0275 17H10.3155V0.199999H12.6675V10.832L13.6275 7.136L15.7875 0.199999H18.6915V17H16.3155V5.168L15.2355 9.296ZM24.4457 0.199999C27.0697 0.199999 28.3817 1.584 28.3817 4.352V6.536C28.3817 9.304 27.0697 10.688 24.4457 10.688H23.1977V17H20.5577V0.199999H24.4457ZM24.4457 2.6H23.1977V8.288H24.4457C24.8777 8.288 25.1977 8.168 25.4057 7.928C25.6297 7.688 25.7417 7.28 25.7417 6.704V4.184C25.7417 3.608 25.6297 3.2 25.4057 2.96C25.1977 2.72 24.8777 2.6 24.4457 2.6ZM34.5245 9.296L32.3165 17H29.6045V0.199999H31.9565V10.832L32.9165 7.136L35.0765 0.199999H37.9805V17H35.6045V5.168L34.5245 9.296ZM39.1027 17.024V14.624C39.7427 14.624 40.1667 14.528 40.3747 14.336C40.5987 14.128 40.7187 13.648 40.7347 12.896L41.1667 0.199999H48.6307V17H45.9427V2.6H43.6387L43.3507 12.752C43.3027 14.288 42.9827 15.384 42.3907 16.04C41.7987 16.696 40.8387 17.024 39.5107 17.024H39.1027ZM53.0754 4.064V13.136C53.0754 14.24 53.5314 14.792 54.4434 14.792C55.3554 14.792 55.8114 14.24 55.8114 13.136V4.064C55.8114 2.96 55.3554 2.408 54.4434 2.408C53.5314 2.408 53.0754 2.96 53.0754 4.064ZM50.4354 12.968V4.232C50.4354 2.888 50.7794 1.848 51.4674 1.112C52.1554 0.375999 53.1474 0.0079999 54.4434 0.0079999C55.7394 0.0079999 56.7314 0.375999 57.4194 1.112C58.1074 1.848 58.4514 2.888 58.4514 4.232V12.968C58.4514 14.312 58.1074 15.352 57.4194 16.088C56.7314 16.824 55.7394 17.192 54.4434 17.192C53.1474 17.192 52.1554 16.824 51.4674 16.088C50.7794 15.352 50.4354 14.312 50.4354 12.968ZM69.0536 10.736H71.5496V12.968C71.5496 14.328 71.2136 15.376 70.5416 16.112C69.8696 16.832 68.8936 17.192 67.6136 17.192C66.3336 17.192 65.3576 16.832 64.6856 16.112C64.0136 15.376 63.6776 14.328 63.6776 12.968V4.232C63.6776 2.872 64.0136 1.832 64.6856 1.112C65.3576 0.375999 66.3336 0.0079999 67.6136 0.0079999C68.8936 0.0079999 69.8696 0.375999 70.5416 1.112C71.2136 1.832 71.5496 2.872 71.5496 4.232V5.864H69.0536V4.064C69.0536 2.96 68.5976 2.408 67.6856 2.408C66.7736 2.408 66.3176 2.96 66.3176 4.064V13.136C66.3176 14.224 66.7736 14.768 67.6856 14.768C68.5976 14.768 69.0536 14.224 69.0536 13.136V10.736ZM81.8394 0.199999L79.0074 12.728C78.6714 14.36 78.1354 15.512 77.3994 16.184C76.6634 16.856 75.4234 17.136 73.6794 17.024V14.672C74.3994 14.72 74.9434 14.648 75.3114 14.456C75.6794 14.264 75.9114 13.88 76.0074 13.304L76.0314 13.16L72.3834 0.199999H74.9994L76.4394 5.936L77.2554 9.872L77.8794 5.96L79.0794 0.199999H81.8394ZM85.5883 2.6V17H82.9483V0.199999H91.2763V17H88.5883V2.6H85.5883ZM97.0785 0.199999C99.7025 0.199999 101.014 1.584 101.014 4.352V6.536C101.014 9.304 99.7025 10.688 97.0785 10.688H95.8305V17H93.1905V0.199999H97.0785ZM97.0785 2.6H95.8305V8.288H97.0785C97.5105 8.288 97.8305 8.168 98.0385 7.928C98.2625 7.688 98.3745 7.28 98.3745 6.704V4.184C98.3745 3.608 98.2625 3.2 98.0385 2.96C97.8305 2.72 97.5105 2.6 97.0785 2.6ZM110.925 0.199999L108.093 12.728C107.757 14.36 107.221 15.512 106.485 16.184C105.749 16.856 104.509 17.136 102.765 17.024V14.672C103.485 14.72 104.029 14.648 104.397 14.456C104.765 14.264 104.997 13.88 105.093 13.304L105.117 13.16L101.469 0.199999H104.085L105.525 5.936L106.341 9.872L106.965 5.96L108.165 0.199999H110.925ZM114.674 9.8V17H112.034V0.199999H114.674V7.4H117.674V0.199999H120.362V17H117.674V9.8H114.674ZM124.7 4.064V13.136C124.7 14.24 125.156 14.792 126.068 14.792C126.98 14.792 127.436 14.24 127.436 13.136V4.064C127.436 2.96 126.98 2.408 126.068 2.408C125.156 2.408 124.7 2.96 124.7 4.064ZM122.06 12.968V4.232C122.06 2.888 122.404 1.848 123.092 1.112C123.78 0.375999 124.772 0.0079999 126.068 0.0079999C127.364 0.0079999 128.356 0.375999 129.044 1.112C129.732 1.848 130.076 2.888 130.076 4.232V12.968C130.076 14.312 129.732 15.352 129.044 16.088C128.356 16.824 127.364 17.192 126.068 17.192C124.772 17.192 123.78 16.824 123.092 16.088C122.404 15.352 122.06 14.312 122.06 12.968ZM135.776 0.199999C137.136 0.199999 138.128 0.519999 138.752 1.16C139.376 1.784 139.688 2.752 139.688 4.064V4.664C139.688 6.392 139.12 7.52 137.984 8.048C139.296 8.56 139.952 9.76 139.952 11.648V13.016C139.952 14.312 139.608 15.304 138.92 15.992C138.248 16.664 137.256 17 135.944 17H131.792V0.199999H135.776ZM135.608 9.44H134.432V14.6H135.944C136.408 14.6 136.752 14.48 136.976 14.24C137.2 13.984 137.312 13.552 137.312 12.944V11.48C137.312 10.712 137.176 10.184 136.904 9.896C136.648 9.592 136.216 9.44 135.608 9.44ZM135.704 2.6H134.432V7.04H135.464C135.992 7.04 136.384 6.904 136.64 6.632C136.912 6.36 137.048 5.904 137.048 5.264V4.328C137.048 3.176 136.6 2.6 135.704 2.6Z" fill="url(#paint0_radial_4005_54)" fill-opacity="0.4"/>
<defs>
<radialGradient id="paint0_radial_4005_54" cx="0" cy="0" r="1" gradientUnits="userSpaceOnUse" gradientTransform="translate(73.381 4.78873) rotate(23.6833) scale(42.9182 42.4906)">
<stop stop-color="white"/>
<stop offset="1" stop-color="white" stop-opacity="0"/>
</radialGradient>
</defs>
</svg>
