<svg width="303" height="38" viewBox="0 0 303 38" fill="none" xmlns="http://www.w3.org/2000/svg">
<path d="M7.64027 22.492L5.87227 25.82V37H0.152266V0.599998H5.87227V16.46L13.3603 0.599998H19.0803L11.1243 16.824L19.0803 37H13.2043L7.64027 22.492ZM27.5595 37H21.6835V0.599998H26.7795V23.636L28.8595 15.628L33.5395 0.599998H39.8315V37H34.6835V11.364L32.3435 20.308L27.5595 37ZM52.2989 0.599998C55.1763 0.599998 57.3083 1.36266 58.6949 2.888C60.1163 4.41333 60.8269 6.64933 60.8269 9.596V14.328C60.8269 17.2747 60.1163 19.5107 58.6949 21.036C57.3083 22.5613 55.1763 23.324 52.2989 23.324H49.5949V37H43.8749V0.599998H52.2989ZM49.5949 5.8V18.124H52.2989C53.2003 18.124 53.8936 17.8813 54.3789 17.396C54.8643 16.9107 55.1069 16.0093 55.1069 14.692V9.232C55.1069 7.91467 54.8643 7.01333 54.3789 6.528C53.8936 6.04267 53.2003 5.8 52.2989 5.8H49.5949ZM69.3525 37H63.4765V0.599998H68.5725V23.636L70.6525 15.628L75.3325 0.599998H81.6245V37H76.4765V11.364L74.1365 20.308L69.3525 37ZM84.0559 31.852C84.7146 31.852 85.2519 31.8173 85.6679 31.748C86.1186 31.6787 86.4826 31.5227 86.7599 31.28C87.0372 31.0027 87.2279 30.6213 87.3319 30.136C87.4706 29.616 87.5572 28.94 87.5919 28.108L88.5279 0.599998H104.7V37H98.8759V5.8H93.8839L93.2599 27.796C93.1559 31.124 92.4452 33.4987 91.1279 34.92C89.8452 36.3413 87.7826 37.052 84.9399 37.052H84.0559V31.852ZM114.33 28.628C114.33 29.9453 114.59 30.8813 115.11 31.436C115.665 31.956 116.393 32.216 117.294 32.216C118.195 32.216 118.906 31.956 119.426 31.436C119.981 30.8813 120.258 29.9453 120.258 28.628V8.972C120.258 7.65467 119.981 6.736 119.426 6.216C118.906 5.66133 118.195 5.384 117.294 5.384C116.393 5.384 115.665 5.66133 115.11 6.216C114.59 6.736 114.33 7.65467 114.33 8.972V28.628ZM108.61 9.336C108.61 6.38933 109.355 4.136 110.846 2.576C112.337 0.981332 114.486 0.184 117.294 0.184C120.102 0.184 122.251 0.981332 123.742 2.576C125.233 4.136 125.978 6.38933 125.978 9.336V28.264C125.978 31.2107 125.233 33.4813 123.742 35.076C122.251 36.636 120.102 37.416 117.294 37.416C114.486 37.416 112.337 36.636 110.846 35.076C109.355 33.4813 108.61 31.2107 108.61 28.264V9.336ZM154.357 23.428V28.264C154.357 31.2107 153.629 33.4813 152.173 35.076C150.752 36.636 148.637 37.416 145.829 37.416C143.021 37.416 140.889 36.636 139.433 35.076C138.012 33.4813 137.301 31.2107 137.301 28.264V9.336C137.301 6.38933 138.012 4.136 139.433 2.576C140.889 0.981332 143.021 0.184 145.829 0.184C148.637 0.184 150.752 0.981332 152.173 2.576C153.629 4.136 154.357 6.38933 154.357 9.336V12.872H148.949V8.972C148.949 7.65467 148.672 6.736 148.117 6.216C147.597 5.66133 146.887 5.384 145.985 5.384C145.084 5.384 144.356 5.66133 143.801 6.216C143.281 6.736 143.021 7.65467 143.021 8.972V28.628C143.021 29.9453 143.281 30.864 143.801 31.384C144.356 31.904 145.084 32.164 145.985 32.164C146.887 32.164 147.597 31.904 148.117 31.384C148.672 30.864 148.949 29.9453 148.949 28.628V23.428H154.357ZM170.516 27.744C170.169 29.3733 169.736 30.812 169.216 32.06C168.731 33.2733 168.055 34.2787 167.188 35.076C166.356 35.8387 165.264 36.3933 163.912 36.74C162.595 37.0867 160.948 37.1907 158.972 37.052V31.956C160.428 32.06 161.572 31.9213 162.404 31.54C163.236 31.1587 163.773 30.3093 164.016 28.992L164.068 28.68L156.164 0.599998H161.832L164.952 13.028L166.72 21.556L168.072 13.08L170.672 0.599998H176.652L170.516 27.744ZM184.775 37H179.055V0.599998H197.099V37H191.275V5.8H184.775V37ZM209.67 0.599998C212.547 0.599998 214.679 1.36266 216.066 2.888C217.487 4.41333 218.198 6.64933 218.198 9.596V14.328C218.198 17.2747 217.487 19.5107 216.066 21.036C214.679 22.5613 212.547 23.324 209.67 23.324H206.966V37H201.246V0.599998H209.67ZM206.966 5.8V18.124H209.67C210.571 18.124 211.265 17.8813 211.75 17.396C212.235 16.9107 212.478 16.0093 212.478 14.692V9.232C212.478 7.91467 212.235 7.01333 211.75 6.528C211.265 6.04267 210.571 5.8 209.67 5.8H206.966ZM233.536 27.744C233.189 29.3733 232.756 30.812 232.236 32.06C231.75 33.2733 231.074 34.2787 230.208 35.076C229.376 35.8387 228.284 36.3933 226.932 36.74C225.614 37.0867 223.968 37.1907 221.992 37.052V31.956C223.448 32.06 224.592 31.9213 225.424 31.54C226.256 31.1587 226.793 30.3093 227.036 28.992L227.088 28.68L219.184 0.599998H224.852L227.972 13.028L229.74 21.556L231.092 13.08L233.692 0.599998H239.672L233.536 27.744ZM247.794 37H242.074V0.599998H247.794V16.2H254.294V0.599998H260.118V37H254.294V21.4H247.794V37ZM269.518 28.628C269.518 29.9453 269.778 30.8813 270.298 31.436C270.852 31.956 271.58 32.216 272.482 32.216C273.383 32.216 274.094 31.956 274.614 31.436C275.168 30.8813 275.446 29.9453 275.446 28.628V8.972C275.446 7.65467 275.168 6.736 274.614 6.216C274.094 5.66133 273.383 5.384 272.482 5.384C271.58 5.384 270.852 5.66133 270.298 6.216C269.778 6.736 269.518 7.65467 269.518 8.972V28.628ZM263.798 9.336C263.798 6.38933 264.543 4.136 266.034 2.576C267.524 0.981332 269.674 0.184 272.482 0.184C275.29 0.184 277.439 0.981332 278.93 2.576C280.42 4.136 281.166 6.38933 281.166 9.336V28.264C281.166 31.2107 280.42 33.4813 278.93 35.076C277.439 36.636 275.29 37.416 272.482 37.416C269.674 37.416 267.524 36.636 266.034 35.076C264.543 33.4813 263.798 31.2107 263.798 28.264V9.336ZM293.515 0.599998C296.496 0.599998 298.645 1.29333 299.963 2.68C301.315 4.06667 301.991 6.164 301.991 8.972V10.272C301.991 12.144 301.696 13.6867 301.107 14.9C300.517 16.1133 299.581 17.0147 298.299 17.604C299.859 18.1933 300.951 19.164 301.575 20.516C302.233 21.8333 302.563 23.4627 302.563 25.404V28.368C302.563 31.176 301.835 33.3253 300.379 34.816C298.923 36.272 296.756 37 293.879 37H284.883V0.599998H293.515ZM290.603 20.62V31.8H293.879C294.849 31.8 295.577 31.54 296.063 31.02C296.583 30.5 296.843 29.564 296.843 28.212V25.04C296.843 23.3413 296.548 22.18 295.959 21.556C295.404 20.932 294.468 20.62 293.151 20.62H290.603ZM290.603 5.8V15.42H292.839C293.913 15.42 294.745 15.1427 295.335 14.588C295.959 14.0333 296.271 13.028 296.271 11.572V9.544C296.271 8.22667 296.028 7.27333 295.543 6.684C295.092 6.09467 294.364 5.8 293.359 5.8H290.603Z" fill="#F2DFB0"/>
<path d="M7.64027 22.492L5.87227 25.82V37H0.152266V0.599998H5.87227V16.46L13.3603 0.599998H19.0803L11.1243 16.824L19.0803 37H13.2043L7.64027 22.492ZM27.5595 37H21.6835V0.599998H26.7795V23.636L28.8595 15.628L33.5395 0.599998H39.8315V37H34.6835V11.364L32.3435 20.308L27.5595 37ZM52.2989 0.599998C55.1763 0.599998 57.3083 1.36266 58.6949 2.888C60.1163 4.41333 60.8269 6.64933 60.8269 9.596V14.328C60.8269 17.2747 60.1163 19.5107 58.6949 21.036C57.3083 22.5613 55.1763 23.324 52.2989 23.324H49.5949V37H43.8749V0.599998H52.2989ZM49.5949 5.8V18.124H52.2989C53.2003 18.124 53.8936 17.8813 54.3789 17.396C54.8643 16.9107 55.1069 16.0093 55.1069 14.692V9.232C55.1069 7.91467 54.8643 7.01333 54.3789 6.528C53.8936 6.04267 53.2003 5.8 52.2989 5.8H49.5949ZM69.3525 37H63.4765V0.599998H68.5725V23.636L70.6525 15.628L75.3325 0.599998H81.6245V37H76.4765V11.364L74.1365 20.308L69.3525 37ZM84.0559 31.852C84.7146 31.852 85.2519 31.8173 85.6679 31.748C86.1186 31.6787 86.4826 31.5227 86.7599 31.28C87.0372 31.0027 87.2279 30.6213 87.3319 30.136C87.4706 29.616 87.5572 28.94 87.5919 28.108L88.5279 0.599998H104.7V37H98.8759V5.8H93.8839L93.2599 27.796C93.1559 31.124 92.4452 33.4987 91.1279 34.92C89.8452 36.3413 87.7826 37.052 84.9399 37.052H84.0559V31.852ZM114.33 28.628C114.33 29.9453 114.59 30.8813 115.11 31.436C115.665 31.956 116.393 32.216 117.294 32.216C118.195 32.216 118.906 31.956 119.426 31.436C119.981 30.8813 120.258 29.9453 120.258 28.628V8.972C120.258 7.65467 119.981 6.736 119.426 6.216C118.906 5.66133 118.195 5.384 117.294 5.384C116.393 5.384 115.665 5.66133 115.11 6.216C114.59 6.736 114.33 7.65467 114.33 8.972V28.628ZM108.61 9.336C108.61 6.38933 109.355 4.136 110.846 2.576C112.337 0.981332 114.486 0.184 117.294 0.184C120.102 0.184 122.251 0.981332 123.742 2.576C125.233 4.136 125.978 6.38933 125.978 9.336V28.264C125.978 31.2107 125.233 33.4813 123.742 35.076C122.251 36.636 120.102 37.416 117.294 37.416C114.486 37.416 112.337 36.636 110.846 35.076C109.355 33.4813 108.61 31.2107 108.61 28.264V9.336ZM154.357 23.428V28.264C154.357 31.2107 153.629 33.4813 152.173 35.076C150.752 36.636 148.637 37.416 145.829 37.416C143.021 37.416 140.889 36.636 139.433 35.076C138.012 33.4813 137.301 31.2107 137.301 28.264V9.336C137.301 6.38933 138.012 4.136 139.433 2.576C140.889 0.981332 143.021 0.184 145.829 0.184C148.637 0.184 150.752 0.981332 152.173 2.576C153.629 4.136 154.357 6.38933 154.357 9.336V12.872H148.949V8.972C148.949 7.65467 148.672 6.736 148.117 6.216C147.597 5.66133 146.887 5.384 145.985 5.384C145.084 5.384 144.356 5.66133 143.801 6.216C143.281 6.736 143.021 7.65467 143.021 8.972V28.628C143.021 29.9453 143.281 30.864 143.801 31.384C144.356 31.904 145.084 32.164 145.985 32.164C146.887 32.164 147.597 31.904 148.117 31.384C148.672 30.864 148.949 29.9453 148.949 28.628V23.428H154.357ZM170.516 27.744C170.169 29.3733 169.736 30.812 169.216 32.06C168.731 33.2733 168.055 34.2787 167.188 35.076C166.356 35.8387 165.264 36.3933 163.912 36.74C162.595 37.0867 160.948 37.1907 158.972 37.052V31.956C160.428 32.06 161.572 31.9213 162.404 31.54C163.236 31.1587 163.773 30.3093 164.016 28.992L164.068 28.68L156.164 0.599998H161.832L164.952 13.028L166.72 21.556L168.072 13.08L170.672 0.599998H176.652L170.516 27.744ZM184.775 37H179.055V0.599998H197.099V37H191.275V5.8H184.775V37ZM209.67 0.599998C212.547 0.599998 214.679 1.36266 216.066 2.888C217.487 4.41333 218.198 6.64933 218.198 9.596V14.328C218.198 17.2747 217.487 19.5107 216.066 21.036C214.679 22.5613 212.547 23.324 209.67 23.324H206.966V37H201.246V0.599998H209.67ZM206.966 5.8V18.124H209.67C210.571 18.124 211.265 17.8813 211.75 17.396C212.235 16.9107 212.478 16.0093 212.478 14.692V9.232C212.478 7.91467 212.235 7.01333 211.75 6.528C211.265 6.04267 210.571 5.8 209.67 5.8H206.966ZM233.536 27.744C233.189 29.3733 232.756 30.812 232.236 32.06C231.75 33.2733 231.074 34.2787 230.208 35.076C229.376 35.8387 228.284 36.3933 226.932 36.74C225.614 37.0867 223.968 37.1907 221.992 37.052V31.956C223.448 32.06 224.592 31.9213 225.424 31.54C226.256 31.1587 226.793 30.3093 227.036 28.992L227.088 28.68L219.184 0.599998H224.852L227.972 13.028L229.74 21.556L231.092 13.08L233.692 0.599998H239.672L233.536 27.744ZM247.794 37H242.074V0.599998H247.794V16.2H254.294V0.599998H260.118V37H254.294V21.4H247.794V37ZM269.518 28.628C269.518 29.9453 269.778 30.8813 270.298 31.436C270.852 31.956 271.58 32.216 272.482 32.216C273.383 32.216 274.094 31.956 274.614 31.436C275.168 30.8813 275.446 29.9453 275.446 28.628V8.972C275.446 7.65467 275.168 6.736 274.614 6.216C274.094 5.66133 273.383 5.384 272.482 5.384C271.58 5.384 270.852 5.66133 270.298 6.216C269.778 6.736 269.518 7.65467 269.518 8.972V28.628ZM263.798 9.336C263.798 6.38933 264.543 4.136 266.034 2.576C267.524 0.981332 269.674 0.184 272.482 0.184C275.29 0.184 277.439 0.981332 278.93 2.576C280.42 4.136 281.166 6.38933 281.166 9.336V28.264C281.166 31.2107 280.42 33.4813 278.93 35.076C277.439 36.636 275.29 37.416 272.482 37.416C269.674 37.416 267.524 36.636 266.034 35.076C264.543 33.4813 263.798 31.2107 263.798 28.264V9.336ZM293.515 0.599998C296.496 0.599998 298.645 1.29333 299.963 2.68C301.315 4.06667 301.991 6.164 301.991 8.972V10.272C301.991 12.144 301.696 13.6867 301.107 14.9C300.517 16.1133 299.581 17.0147 298.299 17.604C299.859 18.1933 300.951 19.164 301.575 20.516C302.233 21.8333 302.563 23.4627 302.563 25.404V28.368C302.563 31.176 301.835 33.3253 300.379 34.816C298.923 36.272 296.756 37 293.879 37H284.883V0.599998H293.515ZM290.603 20.62V31.8H293.879C294.849 31.8 295.577 31.54 296.063 31.02C296.583 30.5 296.843 29.564 296.843 28.212V25.04C296.843 23.3413 296.548 22.18 295.959 21.556C295.404 20.932 294.468 20.62 293.151 20.62H290.603ZM290.603 5.8V15.42H292.839C293.913 15.42 294.745 15.1427 295.335 14.588C295.959 14.0333 296.271 13.028 296.271 11.572V9.544C296.271 8.22667 296.028 7.27333 295.543 6.684C295.092 6.09467 294.364 5.8 293.359 5.8H290.603Z" fill="url(#paint0_radial_4004_23)" fill-opacity="0.4"/>
<defs>
<radialGradient id="paint0_radial_4004_23" cx="0" cy="0" r="1" gradientUnits="userSpaceOnUse" gradientTransform="translate(158.286 11.1409) rotate(23.3177) scale(92.2293 90.2301)">
<stop stop-color="white"/>
<stop offset="1" stop-color="white" stop-opacity="0"/>
</radialGradient>
</defs>
</svg>
