<svg width="322" height="96" viewBox="0 0 322 96" fill="none" xmlns="http://www.w3.org/2000/svg">
<path d="M6.60814 45H0.784141C1.35614 43.648 1.40814 42.348 1.40814 40.58V34.964C1.40814 31.168 2.34414 28.412 5.20414 27.216C2.65614 26.02 1.46014 23.576 1.46014 19.832V16.972C1.46014 11.356 4.00814 8.6 9.93614 8.6H18.5681V45H12.8481V30.18H10.8721C8.27214 30.18 7.12814 31.428 7.12814 34.808V40.528C7.12814 43.492 6.92014 44.064 6.60814 45ZM12.8481 13.8H10.0921C8.06414 13.8 7.18014 14.944 7.18014 17.544V21.132C7.18014 24.044 8.48014 24.98 10.6121 24.98H12.8481V13.8ZM35.798 45L30.234 30.492L28.466 33.82V45H22.746V8.6H28.466V24.46L35.954 8.6H41.674L33.718 24.824L41.674 45H35.798ZM60.9835 8.6C66.9115 8.6 69.4595 11.356 69.4595 16.972V18.272C69.4595 22.016 68.3155 24.408 65.7675 25.604C68.8355 26.8 70.0315 29.556 70.0315 33.404V36.368C70.0315 41.984 67.0675 45 61.3475 45H52.3515V8.6H60.9835ZM60.6195 28.62H58.0715V39.8H61.3475C63.2715 39.8 64.3115 38.916 64.3115 36.212V33.04C64.3115 29.66 63.2195 28.62 60.6195 28.62ZM60.8275 13.8H58.0715V23.42H60.3075C62.4395 23.42 63.7395 22.484 63.7395 19.572V17.544C63.7395 14.944 62.8555 13.8 60.8275 13.8ZM84.1365 28.308L79.3525 45H73.4765V8.6H78.5725V31.636L80.6525 23.628L85.3325 8.6H91.6245V45H86.4765V19.364L84.1365 28.308ZM101.544 45H95.6679V8.6H100.764V31.636L102.844 23.628L107.524 8.6H113.816V45H108.668V19.364L106.328 28.308L101.544 45ZM107.42 0.487997C107.264 2.412 106.38 2.88 104.82 2.88C103.312 2.88 102.532 2.412 102.376 0.487997H98.8399C98.9439 4.024 100.816 6.26 104.82 6.26C108.876 6.26 110.904 4.024 110.904 0.487997H107.42ZM116.297 13.8V8.6H133.977V13.8H127.997V45H122.277V13.8H116.297ZM147.156 28.308L142.372 45H136.496V8.6H141.592V31.636L143.672 23.628L148.352 8.6H154.644V45H149.496V19.364L147.156 28.308ZM172.482 29.4V45H166.762V8.6H172.482V24.2H178.982V8.6H184.806V45H178.982V29.4H172.482ZM201.641 8.6L207.465 45H201.693L200.705 38.396H193.685L192.697 45H187.445L193.269 8.6H201.641ZM197.169 15.048L194.413 33.456H199.925L197.169 15.048ZM226.627 8.6C232.347 8.6 235.155 11.772 235.155 17.596V22.328C235.155 28.152 232.347 31.324 226.627 31.324H223.923V45H218.203V8.6H226.627ZM226.627 13.8H223.923V26.124H226.627C228.447 26.124 229.435 25.292 229.435 22.692V17.232C229.435 14.632 228.447 13.8 226.627 13.8ZM248.465 28.308L243.681 45H237.805V8.6H242.901V31.636L244.981 23.628L249.661 8.6H255.953V45H250.805V19.364L248.465 28.308ZM265.716 29.4V45H259.996V8.6H265.716V24.2H272.216V8.6H278.04V45H272.216V29.4H265.716ZM287.439 16.972V36.628C287.439 39.228 288.583 40.216 290.403 40.216C292.223 40.216 293.367 39.228 293.367 36.628V16.972C293.367 14.372 292.223 13.384 290.403 13.384C288.583 13.384 287.439 14.372 287.439 16.972ZM281.719 36.264V17.336C281.719 11.512 284.787 8.184 290.403 8.184C296.019 8.184 299.087 11.512 299.087 17.336V36.264C299.087 42.088 296.019 45.416 290.403 45.416C284.787 45.416 281.719 42.088 281.719 36.264ZM315.857 45L310.293 30.492L308.525 33.82V45H302.805V8.6H308.525V24.46L316.013 8.6H321.733L313.777 24.824L321.733 45H315.857ZM71.1164 95L65.5524 80.492L63.7844 83.82V95H58.0644V58.6H63.7844V74.46L71.2724 58.6H76.9924L69.0364 74.824L76.9924 95H71.1164ZM92.2836 58.6L98.1076 95H92.3356L91.3476 88.396H84.3276L83.3396 95H78.0876L83.9116 58.6H92.2836ZM87.8116 65.048L85.0556 83.456H90.5676L87.8116 65.048ZM111.795 69.572V67.544C111.795 64.268 110.651 63.384 108.831 63.384C107.011 63.384 105.815 64.372 105.815 66.972V69.936H100.563V67.232C100.563 61.408 103.371 58.184 108.987 58.184C114.603 58.184 117.515 61.512 117.515 67.336V68.272C117.515 72.172 116.267 74.616 113.511 75.76C116.371 77.008 117.515 79.712 117.515 83.404V86.264C117.515 92.088 114.603 95.416 108.987 95.416C103.371 95.416 100.459 92.088 100.459 86.264V82.26H105.867V86.628C105.867 89.228 107.011 90.216 108.831 90.216C110.651 90.216 111.795 89.332 111.795 86.108V83.248C111.795 79.868 110.651 78.62 108.051 78.62H106.647V73.42H108.363C110.495 73.42 111.795 72.484 111.795 69.572ZM134.077 58.6L139.901 95H134.129L133.141 88.396H126.121L125.133 95H119.881L125.705 58.6H134.077ZM129.605 65.048L126.849 83.456H132.361L129.605 65.048ZM156.344 58.6H161.648L155.668 76.28L162.064 95H156.032L151.352 80.596L146.62 95H141.264L147.66 76.28L141.68 58.6H147.608L151.924 72.016L156.344 58.6ZM176.088 81.428H181.496V86.264C181.496 92.088 178.584 95.416 172.968 95.416C167.352 95.416 164.44 92.088 164.44 86.264V67.336C164.44 61.512 167.352 58.184 172.968 58.184C178.584 58.184 181.496 61.512 181.496 67.336V70.872H176.088V66.972C176.088 64.372 174.944 63.384 173.124 63.384C171.304 63.384 170.16 64.372 170.16 66.972V86.628C170.16 89.228 171.304 90.164 173.124 90.164C174.944 90.164 176.088 89.228 176.088 86.628V81.428ZM183.303 63.8V58.6H200.983V63.8H195.003V95H189.283V63.8H183.303ZM216.19 58.6L222.014 95H216.242L215.254 88.396H208.234L207.246 95H201.994L207.818 58.6H216.19ZM211.718 65.048L208.962 83.456H214.474L211.718 65.048ZM230.398 79.4V95H224.678V58.6H230.398V74.2H236.898V58.6H242.722V95H236.898V79.4H230.398ZM265.693 58.6L259.557 85.744C258.205 92.296 255.969 95.572 248.013 95.052V89.956C250.925 90.164 252.589 89.644 253.057 86.992L253.109 86.68L245.205 58.6H250.873L253.993 71.028L255.761 79.556L257.113 71.08L259.713 58.6H265.693Z" fill="#EAC364"/>
<path d="M6.60814 45H0.784141C1.35614 43.648 1.40814 42.348 1.40814 40.58V34.964C1.40814 31.168 2.34414 28.412 5.20414 27.216C2.65614 26.02 1.46014 23.576 1.46014 19.832V16.972C1.46014 11.356 4.00814 8.6 9.93614 8.6H18.5681V45H12.8481V30.18H10.8721C8.27214 30.18 7.12814 31.428 7.12814 34.808V40.528C7.12814 43.492 6.92014 44.064 6.60814 45ZM12.8481 13.8H10.0921C8.06414 13.8 7.18014 14.944 7.18014 17.544V21.132C7.18014 24.044 8.48014 24.98 10.6121 24.98H12.8481V13.8ZM35.798 45L30.234 30.492L28.466 33.82V45H22.746V8.6H28.466V24.46L35.954 8.6H41.674L33.718 24.824L41.674 45H35.798ZM60.9835 8.6C66.9115 8.6 69.4595 11.356 69.4595 16.972V18.272C69.4595 22.016 68.3155 24.408 65.7675 25.604C68.8355 26.8 70.0315 29.556 70.0315 33.404V36.368C70.0315 41.984 67.0675 45 61.3475 45H52.3515V8.6H60.9835ZM60.6195 28.62H58.0715V39.8H61.3475C63.2715 39.8 64.3115 38.916 64.3115 36.212V33.04C64.3115 29.66 63.2195 28.62 60.6195 28.62ZM60.8275 13.8H58.0715V23.42H60.3075C62.4395 23.42 63.7395 22.484 63.7395 19.572V17.544C63.7395 14.944 62.8555 13.8 60.8275 13.8ZM84.1365 28.308L79.3525 45H73.4765V8.6H78.5725V31.636L80.6525 23.628L85.3325 8.6H91.6245V45H86.4765V19.364L84.1365 28.308ZM101.544 45H95.6679V8.6H100.764V31.636L102.844 23.628L107.524 8.6H113.816V45H108.668V19.364L106.328 28.308L101.544 45ZM107.42 0.487997C107.264 2.412 106.38 2.88 104.82 2.88C103.312 2.88 102.532 2.412 102.376 0.487997H98.8399C98.9439 4.024 100.816 6.26 104.82 6.26C108.876 6.26 110.904 4.024 110.904 0.487997H107.42ZM116.297 13.8V8.6H133.977V13.8H127.997V45H122.277V13.8H116.297ZM147.156 28.308L142.372 45H136.496V8.6H141.592V31.636L143.672 23.628L148.352 8.6H154.644V45H149.496V19.364L147.156 28.308ZM172.482 29.4V45H166.762V8.6H172.482V24.2H178.982V8.6H184.806V45H178.982V29.4H172.482ZM201.641 8.6L207.465 45H201.693L200.705 38.396H193.685L192.697 45H187.445L193.269 8.6H201.641ZM197.169 15.048L194.413 33.456H199.925L197.169 15.048ZM226.627 8.6C232.347 8.6 235.155 11.772 235.155 17.596V22.328C235.155 28.152 232.347 31.324 226.627 31.324H223.923V45H218.203V8.6H226.627ZM226.627 13.8H223.923V26.124H226.627C228.447 26.124 229.435 25.292 229.435 22.692V17.232C229.435 14.632 228.447 13.8 226.627 13.8ZM248.465 28.308L243.681 45H237.805V8.6H242.901V31.636L244.981 23.628L249.661 8.6H255.953V45H250.805V19.364L248.465 28.308ZM265.716 29.4V45H259.996V8.6H265.716V24.2H272.216V8.6H278.04V45H272.216V29.4H265.716ZM287.439 16.972V36.628C287.439 39.228 288.583 40.216 290.403 40.216C292.223 40.216 293.367 39.228 293.367 36.628V16.972C293.367 14.372 292.223 13.384 290.403 13.384C288.583 13.384 287.439 14.372 287.439 16.972ZM281.719 36.264V17.336C281.719 11.512 284.787 8.184 290.403 8.184C296.019 8.184 299.087 11.512 299.087 17.336V36.264C299.087 42.088 296.019 45.416 290.403 45.416C284.787 45.416 281.719 42.088 281.719 36.264ZM315.857 45L310.293 30.492L308.525 33.82V45H302.805V8.6H308.525V24.46L316.013 8.6H321.733L313.777 24.824L321.733 45H315.857ZM71.1164 95L65.5524 80.492L63.7844 83.82V95H58.0644V58.6H63.7844V74.46L71.2724 58.6H76.9924L69.0364 74.824L76.9924 95H71.1164ZM92.2836 58.6L98.1076 95H92.3356L91.3476 88.396H84.3276L83.3396 95H78.0876L83.9116 58.6H92.2836ZM87.8116 65.048L85.0556 83.456H90.5676L87.8116 65.048ZM111.795 69.572V67.544C111.795 64.268 110.651 63.384 108.831 63.384C107.011 63.384 105.815 64.372 105.815 66.972V69.936H100.563V67.232C100.563 61.408 103.371 58.184 108.987 58.184C114.603 58.184 117.515 61.512 117.515 67.336V68.272C117.515 72.172 116.267 74.616 113.511 75.76C116.371 77.008 117.515 79.712 117.515 83.404V86.264C117.515 92.088 114.603 95.416 108.987 95.416C103.371 95.416 100.459 92.088 100.459 86.264V82.26H105.867V86.628C105.867 89.228 107.011 90.216 108.831 90.216C110.651 90.216 111.795 89.332 111.795 86.108V83.248C111.795 79.868 110.651 78.62 108.051 78.62H106.647V73.42H108.363C110.495 73.42 111.795 72.484 111.795 69.572ZM134.077 58.6L139.901 95H134.129L133.141 88.396H126.121L125.133 95H119.881L125.705 58.6H134.077ZM129.605 65.048L126.849 83.456H132.361L129.605 65.048ZM156.344 58.6H161.648L155.668 76.28L162.064 95H156.032L151.352 80.596L146.62 95H141.264L147.66 76.28L141.68 58.6H147.608L151.924 72.016L156.344 58.6ZM176.088 81.428H181.496V86.264C181.496 92.088 178.584 95.416 172.968 95.416C167.352 95.416 164.44 92.088 164.44 86.264V67.336C164.44 61.512 167.352 58.184 172.968 58.184C178.584 58.184 181.496 61.512 181.496 67.336V70.872H176.088V66.972C176.088 64.372 174.944 63.384 173.124 63.384C171.304 63.384 170.16 64.372 170.16 66.972V86.628C170.16 89.228 171.304 90.164 173.124 90.164C174.944 90.164 176.088 89.228 176.088 86.628V81.428ZM183.303 63.8V58.6H200.983V63.8H195.003V95H189.283V63.8H183.303ZM216.19 58.6L222.014 95H216.242L215.254 88.396H208.234L207.246 95H201.994L207.818 58.6H216.19ZM211.718 65.048L208.962 83.456H214.474L211.718 65.048ZM230.398 79.4V95H224.678V58.6H230.398V74.2H236.898V58.6H242.722V95H236.898V79.4H230.398ZM265.693 58.6L259.557 85.744C258.205 92.296 255.969 95.572 248.013 95.052V89.956C250.925 90.164 252.589 89.644 253.057 86.992L253.109 86.68L245.205 58.6H250.873L253.993 71.028L255.761 79.556L257.113 71.08L259.713 58.6H265.693Z" fill="url(#paint0_radial_4005_25)" fill-opacity="0.4"/>
<defs>
<radialGradient id="paint0_radial_4005_25" cx="0" cy="0" r="1" gradientUnits="userSpaceOnUse" gradientTransform="translate(169 32.9437) rotate(42.8259) scale(126.803 170.148)">
<stop stop-color="white"/>
<stop offset="1" stop-color="white" stop-opacity="0"/>
</radialGradient>
</defs>
</svg>
