<svg width="1329" height="112" viewBox="0 0 1329 112" fill="none" xmlns="http://www.w3.org/2000/svg">
<path d="M15.021 110H0.685C2.093 106.672 2.221 103.472 2.221 99.12V85.296C2.221 75.952 4.525 69.168 11.565 66.224C5.293 63.28 2.349 57.264 2.349 48.048V41.008C2.349 27.184 8.621 20.4 23.213 20.4H44.461V110H30.381V73.52H25.517C19.117 73.52 16.301 76.592 16.301 84.912V98.992C16.301 106.288 15.789 107.696 15.021 110ZM30.381 33.2H23.597C18.605 33.2 16.429 36.016 16.429 42.416V51.248C16.429 58.416 19.629 60.72 24.877 60.72H30.381V33.2ZM86.873 110L73.177 74.288L68.825 82.48V110H54.745V20.4H68.825V59.44L87.257 20.4H101.337L81.753 60.336L101.337 110H86.873ZM148.868 20.4C163.46 20.4 169.732 27.184 169.732 41.008V44.208C169.732 53.424 166.916 59.312 160.644 62.256C168.196 65.2 171.14 71.984 171.14 81.456V88.752C171.14 102.576 163.844 110 149.764 110H127.62V20.4H148.868ZM147.972 69.68H141.7V97.2H149.764C154.5 97.2 157.06 95.024 157.06 88.368V80.56C157.06 72.24 154.372 69.68 147.972 69.68ZM148.484 33.2H141.7V56.88H147.204C152.452 56.88 155.652 54.576 155.652 47.408V42.416C155.652 36.016 153.476 33.2 148.484 33.2ZM205.86 68.912L194.084 110H179.62V20.4H192.164V77.104L197.284 57.392L208.804 20.4H224.292V110H211.62V46.896L205.86 68.912ZM248.709 110H234.245V20.4H246.789V77.104L251.909 57.392L263.429 20.4H278.917V110H266.245V46.896L260.485 68.912L248.709 110ZM263.173 0.431992C262.789 5.16799 260.613 6.31999 256.773 6.31999C253.061 6.31999 251.141 5.16799 250.757 0.431992H242.053C242.309 9.13599 246.917 14.64 256.773 14.64C266.757 14.64 271.749 9.13599 271.749 0.431992H263.173ZM285.024 33.2V20.4H328.544V33.2H313.824V110H299.744V33.2H285.024ZM360.985 68.912L349.209 110H334.745V20.4H347.289V77.104L352.409 57.392L363.929 20.4H379.417V110H366.745V46.896L360.985 68.912ZM423.325 71.6V110H409.245V20.4H423.325V58.8H439.325V20.4H453.661V110H439.325V71.6H423.325ZM495.102 20.4L509.438 110H495.23L492.798 93.744H475.518L473.086 110H460.158L474.494 20.4H495.102ZM484.094 36.272L477.31 81.584H490.878L484.094 36.272ZM556.606 20.4C570.686 20.4 577.598 28.208 577.598 42.544V54.192C577.598 68.528 570.686 76.336 556.606 76.336H549.95V110H535.87V20.4H556.606ZM556.606 33.2H549.95V63.536H556.606C561.086 63.536 563.518 61.488 563.518 55.088V41.648C563.518 35.248 561.086 33.2 556.606 33.2ZM610.36 68.912L598.584 110H584.12V20.4H596.664V77.104L601.784 57.392L613.304 20.4H628.792V110H616.12V46.896L610.36 68.912ZM652.825 71.6V110H638.745V20.4H652.825V58.8H668.825V20.4H683.161V110H668.825V71.6H652.825ZM706.298 41.008V89.392C706.298 95.792 709.114 98.224 713.594 98.224C718.074 98.224 720.89 95.792 720.89 89.392V41.008C720.89 34.608 718.074 32.176 713.594 32.176C709.114 32.176 706.298 34.608 706.298 41.008ZM692.218 88.496V41.904C692.218 27.568 699.77 19.376 713.594 19.376C727.418 19.376 734.97 27.568 734.97 41.904V88.496C734.97 102.832 727.418 111.024 713.594 111.024C699.77 111.024 692.218 102.832 692.218 88.496ZM776.248 110L762.552 74.288L758.2 82.48V110H744.12V20.4H758.2V59.44L776.632 20.4H790.712L771.128 60.336L790.712 110H776.248ZM849.123 110L835.427 74.288L831.075 82.48V110H816.995V20.4H831.075V59.44L849.507 20.4H863.587L844.003 60.336L863.587 110H849.123ZM901.227 20.4L915.563 110H901.355L898.923 93.744H881.643L879.211 110H866.283L880.619 20.4H901.227ZM890.219 36.272L883.435 81.584H897.003L890.219 36.272ZM949.256 47.408V42.416C949.256 34.352 946.44 32.176 941.96 32.176C937.48 32.176 934.536 34.608 934.536 41.008V48.304H921.608V41.648C921.608 27.312 928.52 19.376 942.344 19.376C956.168 19.376 963.336 27.568 963.336 41.904V44.208C963.336 53.808 960.264 59.824 953.48 62.64C960.52 65.712 963.336 72.368 963.336 81.456V88.496C963.336 102.832 956.168 111.024 942.344 111.024C928.52 111.024 921.352 102.832 921.352 88.496V78.64H934.664V89.392C934.664 95.792 937.48 98.224 941.96 98.224C946.44 98.224 949.256 96.048 949.256 88.112V81.072C949.256 72.752 946.44 69.68 940.04 69.68H936.584V56.88H940.808C946.056 56.88 949.256 54.576 949.256 47.408ZM1004.1 20.4L1018.44 110H1004.23L1001.8 93.744H984.518L982.086 110H969.158L983.494 20.4H1004.1ZM993.094 36.272L986.31 81.584H999.878L993.094 36.272ZM1058.92 20.4H1071.97L1057.25 63.92L1073 110H1058.15L1046.63 74.544L1034.98 110H1021.8L1037.54 63.92L1022.82 20.4H1037.41L1048.04 53.424L1058.92 20.4ZM1107.52 76.592H1120.83V88.496C1120.83 102.832 1113.66 111.024 1099.84 111.024C1086.01 111.024 1078.84 102.832 1078.84 88.496V41.904C1078.84 27.568 1086.01 19.376 1099.84 19.376C1113.66 19.376 1120.83 27.568 1120.83 41.904V50.608H1107.52V41.008C1107.52 34.608 1104.7 32.176 1100.22 32.176C1095.74 32.176 1092.92 34.608 1092.92 41.008V89.392C1092.92 95.792 1095.74 98.096 1100.22 98.096C1104.7 98.096 1107.52 95.792 1107.52 89.392V76.592ZM1125.27 33.2V20.4H1168.79V33.2H1154.07V110H1139.99V33.2H1125.27ZM1206.23 20.4L1220.56 110H1206.36L1203.92 93.744H1186.64L1184.21 110H1171.28L1185.62 20.4H1206.23ZM1195.22 36.272L1188.44 81.584H1202L1195.22 36.272ZM1241.2 71.6V110H1227.12V20.4H1241.2V58.8H1257.2V20.4H1271.54V110H1257.2V71.6H1241.2ZM1328.08 20.4L1312.98 87.216C1309.65 103.344 1304.15 111.408 1284.56 110.128V97.584C1291.73 98.096 1295.83 96.816 1296.98 90.288L1297.11 89.52L1277.65 20.4H1291.6L1299.28 50.992L1303.63 71.984L1306.96 51.12L1313.36 20.4H1328.08Z" fill="#EAC364"/>
<path d="M15.021 110H0.685C2.093 106.672 2.221 103.472 2.221 99.12V85.296C2.221 75.952 4.525 69.168 11.565 66.224C5.293 63.28 2.349 57.264 2.349 48.048V41.008C2.349 27.184 8.621 20.4 23.213 20.4H44.461V110H30.381V73.52H25.517C19.117 73.52 16.301 76.592 16.301 84.912V98.992C16.301 106.288 15.789 107.696 15.021 110ZM30.381 33.2H23.597C18.605 33.2 16.429 36.016 16.429 42.416V51.248C16.429 58.416 19.629 60.72 24.877 60.72H30.381V33.2ZM86.873 110L73.177 74.288L68.825 82.48V110H54.745V20.4H68.825V59.44L87.257 20.4H101.337L81.753 60.336L101.337 110H86.873ZM148.868 20.4C163.46 20.4 169.732 27.184 169.732 41.008V44.208C169.732 53.424 166.916 59.312 160.644 62.256C168.196 65.2 171.14 71.984 171.14 81.456V88.752C171.14 102.576 163.844 110 149.764 110H127.62V20.4H148.868ZM147.972 69.68H141.7V97.2H149.764C154.5 97.2 157.06 95.024 157.06 88.368V80.56C157.06 72.24 154.372 69.68 147.972 69.68ZM148.484 33.2H141.7V56.88H147.204C152.452 56.88 155.652 54.576 155.652 47.408V42.416C155.652 36.016 153.476 33.2 148.484 33.2ZM205.86 68.912L194.084 110H179.62V20.4H192.164V77.104L197.284 57.392L208.804 20.4H224.292V110H211.62V46.896L205.86 68.912ZM248.709 110H234.245V20.4H246.789V77.104L251.909 57.392L263.429 20.4H278.917V110H266.245V46.896L260.485 68.912L248.709 110ZM263.173 0.431992C262.789 5.16799 260.613 6.31999 256.773 6.31999C253.061 6.31999 251.141 5.16799 250.757 0.431992H242.053C242.309 9.13599 246.917 14.64 256.773 14.64C266.757 14.64 271.749 9.13599 271.749 0.431992H263.173ZM285.024 33.2V20.4H328.544V33.2H313.824V110H299.744V33.2H285.024ZM360.985 68.912L349.209 110H334.745V20.4H347.289V77.104L352.409 57.392L363.929 20.4H379.417V110H366.745V46.896L360.985 68.912ZM423.325 71.6V110H409.245V20.4H423.325V58.8H439.325V20.4H453.661V110H439.325V71.6H423.325ZM495.102 20.4L509.438 110H495.23L492.798 93.744H475.518L473.086 110H460.158L474.494 20.4H495.102ZM484.094 36.272L477.31 81.584H490.878L484.094 36.272ZM556.606 20.4C570.686 20.4 577.598 28.208 577.598 42.544V54.192C577.598 68.528 570.686 76.336 556.606 76.336H549.95V110H535.87V20.4H556.606ZM556.606 33.2H549.95V63.536H556.606C561.086 63.536 563.518 61.488 563.518 55.088V41.648C563.518 35.248 561.086 33.2 556.606 33.2ZM610.36 68.912L598.584 110H584.12V20.4H596.664V77.104L601.784 57.392L613.304 20.4H628.792V110H616.12V46.896L610.36 68.912ZM652.825 71.6V110H638.745V20.4H652.825V58.8H668.825V20.4H683.161V110H668.825V71.6H652.825ZM706.298 41.008V89.392C706.298 95.792 709.114 98.224 713.594 98.224C718.074 98.224 720.89 95.792 720.89 89.392V41.008C720.89 34.608 718.074 32.176 713.594 32.176C709.114 32.176 706.298 34.608 706.298 41.008ZM692.218 88.496V41.904C692.218 27.568 699.77 19.376 713.594 19.376C727.418 19.376 734.97 27.568 734.97 41.904V88.496C734.97 102.832 727.418 111.024 713.594 111.024C699.77 111.024 692.218 102.832 692.218 88.496ZM776.248 110L762.552 74.288L758.2 82.48V110H744.12V20.4H758.2V59.44L776.632 20.4H790.712L771.128 60.336L790.712 110H776.248ZM849.123 110L835.427 74.288L831.075 82.48V110H816.995V20.4H831.075V59.44L849.507 20.4H863.587L844.003 60.336L863.587 110H849.123ZM901.227 20.4L915.563 110H901.355L898.923 93.744H881.643L879.211 110H866.283L880.619 20.4H901.227ZM890.219 36.272L883.435 81.584H897.003L890.219 36.272ZM949.256 47.408V42.416C949.256 34.352 946.44 32.176 941.96 32.176C937.48 32.176 934.536 34.608 934.536 41.008V48.304H921.608V41.648C921.608 27.312 928.52 19.376 942.344 19.376C956.168 19.376 963.336 27.568 963.336 41.904V44.208C963.336 53.808 960.264 59.824 953.48 62.64C960.52 65.712 963.336 72.368 963.336 81.456V88.496C963.336 102.832 956.168 111.024 942.344 111.024C928.52 111.024 921.352 102.832 921.352 88.496V78.64H934.664V89.392C934.664 95.792 937.48 98.224 941.96 98.224C946.44 98.224 949.256 96.048 949.256 88.112V81.072C949.256 72.752 946.44 69.68 940.04 69.68H936.584V56.88H940.808C946.056 56.88 949.256 54.576 949.256 47.408ZM1004.1 20.4L1018.44 110H1004.23L1001.8 93.744H984.518L982.086 110H969.158L983.494 20.4H1004.1ZM993.094 36.272L986.31 81.584H999.878L993.094 36.272ZM1058.92 20.4H1071.97L1057.25 63.92L1073 110H1058.15L1046.63 74.544L1034.98 110H1021.8L1037.54 63.92L1022.82 20.4H1037.41L1048.04 53.424L1058.92 20.4ZM1107.52 76.592H1120.83V88.496C1120.83 102.832 1113.66 111.024 1099.84 111.024C1086.01 111.024 1078.84 102.832 1078.84 88.496V41.904C1078.84 27.568 1086.01 19.376 1099.84 19.376C1113.66 19.376 1120.83 27.568 1120.83 41.904V50.608H1107.52V41.008C1107.52 34.608 1104.7 32.176 1100.22 32.176C1095.74 32.176 1092.92 34.608 1092.92 41.008V89.392C1092.92 95.792 1095.74 98.096 1100.22 98.096C1104.7 98.096 1107.52 95.792 1107.52 89.392V76.592ZM1125.27 33.2V20.4H1168.79V33.2H1154.07V110H1139.99V33.2H1125.27ZM1206.23 20.4L1220.56 110H1206.36L1203.92 93.744H1186.64L1184.21 110H1171.28L1185.62 20.4H1206.23ZM1195.22 36.272L1188.44 81.584H1202L1195.22 36.272ZM1241.2 71.6V110H1227.12V20.4H1241.2V58.8H1257.2V20.4H1271.54V110H1257.2V71.6H1241.2ZM1328.08 20.4L1312.98 87.216C1309.65 103.344 1304.15 111.408 1284.56 110.128V97.584C1291.73 98.096 1295.83 96.816 1296.98 90.288L1297.11 89.52L1277.65 20.4H1291.6L1299.28 50.992L1303.63 71.984L1306.96 51.12L1313.36 20.4H1328.08Z" fill="url(#paint0_radial_4001_3)" fill-opacity="0.4"/>
<defs>
<radialGradient id="paint0_radial_4001_3" cx="0" cy="0" r="1" gradientUnits="userSpaceOnUse" gradientTransform="translate(696.762 46.9437) rotate(12.567) scale(396.161 226.433)">
<stop stop-color="white"/>
<stop offset="1" stop-color="white" stop-opacity="0"/>
</radialGradient>
</defs>
</svg>
